<svg width="40" height="40" viewBox="0 0 40 40" fill="none" xmlns="http://www.w3.org/2000/svg">
<path d="M21.3125 26.3333L27.5625 20M27.5625 20L21.3125 13.6667M27.5625 20H11.9375M38.5 20C38.5 22.4951 38.015 24.9658 37.0727 27.271C36.1305 29.5762 34.7493 31.6707 33.0082 33.435C31.2672 35.1993 29.2002 36.5989 26.9253 37.5537C24.6505 38.5086 22.2123 39 19.75 39C17.2877 39 14.8495 38.5086 12.5747 37.5537C10.2998 36.5989 8.23285 35.1993 6.49175 33.435C4.75065 31.6707 3.36953 29.5762 2.42726 27.271C1.48498 24.9658 1 22.4951 1 20C1 14.9609 2.97544 10.1282 6.49175 6.56497C10.0081 3.00178 14.7772 1 19.75 1C24.7228 1 29.4919 3.00178 33.0082 6.56497C36.5246 10.1282 38.5 14.9609 38.5 20Z" stroke="black" stroke-width="1.5" stroke-linecap="round" stroke-linejoin="round"/>
</svg>
